<svg xmlns="http://www.w3.org/2000/svg" version="1.1" xmlns:xlink="http://www.w3.org/1999/xlink" xmlns:svgjs="http://svgjs.com/svgjs" width="1440" height="560" preserveAspectRatio="none" viewBox="0 0 1440 560"><g mask="url(&quot;#SvgjsMask1129&quot;)" fill="none"><rect width="1440" height="560" x="0" y="0" fill="url(#SvgjsLinearGradient1130)"></rect><path d="M1512 560L0 560 L0 326.22Q63.35 269.57, 120 332.91Q192.64 285.56, 240 358.2Q281.13 327.32, 312 368.45Q330.58 315.03, 384 333.61Q431.33 260.94, 504 308.28Q558.88 291.16, 576 346.04Q641.43 291.48, 696 356.91Q717.87 258.78, 816 280.65Q857.05 249.7, 888 290.75Q965.8 248.55, 1008 326.35Q1034.28 280.63, 1080 306.91Q1130.25 237.16, 1200 287.41Q1283.73 251.14, 1320 334.87Q1344.72 287.6, 1392 312.32Q1472.76 273.08, 1512 353.84z" fill="rgba(62, 101, 181, 1)"></path><path d="M1464 560L0 560 L0 401.73Q42.26 324, 120 366.26Q164.54 338.8, 192 383.34Q273.18 344.52, 312 425.7Q338.29 379.99, 384 406.27Q416.92 319.19, 504 352.1Q580.23 308.33, 624 384.55Q678.8 367.35, 696 422.14Q745.09 351.23, 816 400.32Q873.77 386.09, 888 443.85Q909.38 345.23, 1008 366.6Q1051.17 337.77, 1080 380.94Q1164.46 345.4, 1200 429.86Q1240.55 350.4, 1320 390.95Q1342.51 341.46, 1392 363.97Q1435.11 335.08, 1464 378.18z" fill="rgba(40, 96, 191, 1)"></path><path d="M1464 560L0 560 L0 441.36Q64.6 433.96, 72 498.56Q95.42 401.98, 192 425.39Q263.9 377.29, 312 449.2Q370.12 435.31, 384 493.43Q455.99 445.42, 504 517.42Q519.38 412.8, 624 428.19Q691.95 376.14, 744 444.09Q794.45 422.54, 816 472.99Q860.85 445.84, 888 490.68Q925.51 408.19, 1008 445.71Q1082.84 400.55, 1128 475.39Q1163.38 390.76, 1248 426.14Q1297.76 403.89, 1320 453.65Q1379.89 441.54, 1392 501.43Q1434.44 471.87, 1464 514.31z" fill="#356cb1"></path><path d="M1488 560L0 560 L0 574.39Q28.49 482.88, 120 511.37Q189.58 460.95, 240 530.53Q327.98 498.5, 360 586.48Q378.87 485.35, 480 504.21Q510.73 462.94, 552 493.67Q600.39 470.07, 624 518.46Q680.36 502.82, 696 559.18Q702.74 493.91, 768 500.65Q833.06 445.7, 888 510.76Q962.32 465.08, 1008 539.4Q1035.9 495.3, 1080 523.2Q1107.07 478.26, 1152 505.33Q1212.09 493.42, 1224 553.51Q1229.51 487.02, 1296 492.53Q1364.38 440.91, 1416 509.29Q1463.88 485.16, 1488 533.04z" fill="white"></path></g><defs><mask id="SvgjsMask1129"><rect width="1440" height="560" fill="#ffffff"></rect></mask><linearGradient x1="50%" y1="0%" x2="50%" y2="100%" gradientUnits="userSpaceOnUse" id="SvgjsLinearGradient1130"><stop stop-color="#0e2a47" offset="0"></stop><stop stop-color="rgba(43, 125, 195, 1)" offset="1"></stop></linearGradient></defs></svg>