<svg xmlns="http://www.w3.org/2000/svg" version="1.1" xmlns:xlink="http://www.w3.org/1999/xlink" xmlns:svgjs="http://svgjs.com/svgjs" width="1440" height="560" preserveAspectRatio="none" viewBox="0 0 1440 560"><g mask="url(&quot;#SvgjsMask1392&quot;)" fill="none"><rect width="1440" height="560" x="0" y="0" fill="url(#SvgjsLinearGradient1393)"></rect><path d="M31.31 412.16L96.26 449.66L96.26 524.66L31.31 562.16L-33.64 524.66L-33.64 449.66zM226.17 74.66L291.13 112.16L291.13 187.16L226.17 224.66L161.22 187.16L161.22 112.16zM226.17 299.66L291.13 337.16L291.13 412.16L226.17 449.66L161.22 412.16L161.22 337.16zM161.22 412.16L226.17 449.66L226.17 524.66L161.22 562.16L96.26 524.66L96.26 449.66zM226.17 524.66L291.13 562.16L291.13 637.16L226.17 674.66L161.22 637.16L161.22 562.16zM356.08 299.66L421.03 337.16L421.03 412.16L356.08 449.66L291.13 412.16L291.13 337.16zM291.13 412.16L356.08 449.66L356.08 524.66L291.13 562.16L226.17 524.66L226.17 449.66zM485.99 299.66L550.94 337.16L550.94 412.16L485.99 449.66L421.03 412.16L421.03 337.16zM550.94 -37.84L615.89 -0.34L615.89 74.66L550.94 112.16L485.99 74.66L485.99 -0.34zM615.89 299.66L680.85 337.16L680.85 412.16L615.89 449.66L550.94 412.16L550.94 337.16zM745.8 74.66L810.75 112.16L810.75 187.16L745.8 224.66L680.85 187.16L680.85 112.16zM680.85 412.16L745.8 449.66L745.8 524.66L680.85 562.16L615.89 524.66L615.89 449.66zM875.71 74.66L940.66 112.16L940.66 187.16L875.71 224.66L810.75 187.16L810.75 112.16zM810.75 187.16L875.71 224.66L875.71 299.66L810.75 337.16L745.8 299.66L745.8 224.66zM940.66 -37.84L1005.62 -0.34L1005.62 74.66L940.66 112.16L875.71 74.66L875.71 -0.34zM1005.62 74.66L1070.57 112.16L1070.57 187.16L1005.62 224.66L940.66 187.16L940.66 112.16zM1005.62 524.66L1070.57 562.16L1070.57 637.16L1005.62 674.66L940.66 637.16L940.66 562.16zM1070.57 -37.84L1135.52 -0.34L1135.52 74.66L1070.57 112.16L1005.62 74.66L1005.62 -0.34zM1070.57 187.16L1135.52 224.66L1135.52 299.66L1070.57 337.16L1005.62 299.66L1005.62 224.66zM1070.57 412.16L1135.52 449.66L1135.52 524.66L1070.57 562.16L1005.62 524.66L1005.62 449.66zM1265.43 299.66L1330.38 337.16L1330.38 412.16L1265.43 449.66L1200.48 412.16L1200.48 337.16zM1200.48 412.16L1265.43 449.66L1265.43 524.66L1200.48 562.16L1135.52 524.66L1135.52 449.66zM1265.43 524.66L1330.38 562.16L1330.38 637.16L1265.43 674.66L1200.48 637.16L1200.48 562.16zM1330.38 -37.84L1395.34 -0.34L1395.34 74.66L1330.38 112.16L1265.43 74.66L1265.43 -0.34zM1395.34 74.66L1460.29 112.16L1460.29 187.16L1395.34 224.66L1330.38 187.16L1330.38 112.16zM1330.38 412.16L1395.34 449.66L1395.34 524.66L1330.38 562.16L1265.43 524.66L1265.43 449.66zM1525.25 524.66L1590.2 562.16L1590.2 637.16L1525.25 674.66L1460.29 637.16L1460.29 562.16z" stroke="rgba(199, 201, 203, 1)" stroke-width="2"></path><path d="M23.81 412.16 a7.5 7.5 0 1 0 15 0 a7.5 7.5 0 1 0 -15 0zM88.76 449.66 a7.5 7.5 0 1 0 15 0 a7.5 7.5 0 1 0 -15 0zM88.76 524.66 a7.5 7.5 0 1 0 15 0 a7.5 7.5 0 1 0 -15 0zM23.81 562.16 a7.5 7.5 0 1 0 15 0 a7.5 7.5 0 1 0 -15 0zM-41.14 524.66 a7.5 7.5 0 1 0 15 0 a7.5 7.5 0 1 0 -15 0zM-41.14 449.66 a7.5 7.5 0 1 0 15 0 a7.5 7.5 0 1 0 -15 0zM218.67 74.66 a7.5 7.5 0 1 0 15 0 a7.5 7.5 0 1 0 -15 0zM283.63 112.16 a7.5 7.5 0 1 0 15 0 a7.5 7.5 0 1 0 -15 0zM283.63 187.16 a7.5 7.5 0 1 0 15 0 a7.5 7.5 0 1 0 -15 0zM218.67 224.66 a7.5 7.5 0 1 0 15 0 a7.5 7.5 0 1 0 -15 0zM153.72 187.16 a7.5 7.5 0 1 0 15 0 a7.5 7.5 0 1 0 -15 0zM153.72 112.16 a7.5 7.5 0 1 0 15 0 a7.5 7.5 0 1 0 -15 0zM218.67 299.66 a7.5 7.5 0 1 0 15 0 a7.5 7.5 0 1 0 -15 0zM283.63 337.16 a7.5 7.5 0 1 0 15 0 a7.5 7.5 0 1 0 -15 0zM283.63 412.16 a7.5 7.5 0 1 0 15 0 a7.5 7.5 0 1 0 -15 0zM218.67 449.66 a7.5 7.5 0 1 0 15 0 a7.5 7.5 0 1 0 -15 0zM153.72 412.16 a7.5 7.5 0 1 0 15 0 a7.5 7.5 0 1 0 -15 0zM153.72 337.16 a7.5 7.5 0 1 0 15 0 a7.5 7.5 0 1 0 -15 0zM218.67 524.66 a7.5 7.5 0 1 0 15 0 a7.5 7.5 0 1 0 -15 0zM153.72 562.16 a7.5 7.5 0 1 0 15 0 a7.5 7.5 0 1 0 -15 0zM283.63 562.16 a7.5 7.5 0 1 0 15 0 a7.5 7.5 0 1 0 -15 0zM283.63 637.16 a7.5 7.5 0 1 0 15 0 a7.5 7.5 0 1 0 -15 0zM218.67 674.66 a7.5 7.5 0 1 0 15 0 a7.5 7.5 0 1 0 -15 0zM153.72 637.16 a7.5 7.5 0 1 0 15 0 a7.5 7.5 0 1 0 -15 0zM348.58 299.66 a7.5 7.5 0 1 0 15 0 a7.5 7.5 0 1 0 -15 0zM413.53 337.16 a7.5 7.5 0 1 0 15 0 a7.5 7.5 0 1 0 -15 0zM413.53 412.16 a7.5 7.5 0 1 0 15 0 a7.5 7.5 0 1 0 -15 0zM348.58 449.66 a7.5 7.5 0 1 0 15 0 a7.5 7.5 0 1 0 -15 0zM348.58 524.66 a7.5 7.5 0 1 0 15 0 a7.5 7.5 0 1 0 -15 0zM478.49 299.66 a7.5 7.5 0 1 0 15 0 a7.5 7.5 0 1 0 -15 0zM543.44 337.16 a7.5 7.5 0 1 0 15 0 a7.5 7.5 0 1 0 -15 0zM543.44 412.16 a7.5 7.5 0 1 0 15 0 a7.5 7.5 0 1 0 -15 0zM478.49 449.66 a7.5 7.5 0 1 0 15 0 a7.5 7.5 0 1 0 -15 0zM543.44 -37.84 a7.5 7.5 0 1 0 15 0 a7.5 7.5 0 1 0 -15 0zM608.39 -0.34 a7.5 7.5 0 1 0 15 0 a7.5 7.5 0 1 0 -15 0zM608.39 74.66 a7.5 7.5 0 1 0 15 0 a7.5 7.5 0 1 0 -15 0zM543.44 112.16 a7.5 7.5 0 1 0 15 0 a7.5 7.5 0 1 0 -15 0zM478.49 74.66 a7.5 7.5 0 1 0 15 0 a7.5 7.5 0 1 0 -15 0zM478.49 -0.34 a7.5 7.5 0 1 0 15 0 a7.5 7.5 0 1 0 -15 0zM608.39 299.66 a7.5 7.5 0 1 0 15 0 a7.5 7.5 0 1 0 -15 0zM673.35 337.16 a7.5 7.5 0 1 0 15 0 a7.5 7.5 0 1 0 -15 0zM673.35 412.16 a7.5 7.5 0 1 0 15 0 a7.5 7.5 0 1 0 -15 0zM608.39 449.66 a7.5 7.5 0 1 0 15 0 a7.5 7.5 0 1 0 -15 0zM738.3 74.66 a7.5 7.5 0 1 0 15 0 a7.5 7.5 0 1 0 -15 0zM803.25 112.16 a7.5 7.5 0 1 0 15 0 a7.5 7.5 0 1 0 -15 0zM803.25 187.16 a7.5 7.5 0 1 0 15 0 a7.5 7.5 0 1 0 -15 0zM738.3 224.66 a7.5 7.5 0 1 0 15 0 a7.5 7.5 0 1 0 -15 0zM673.35 187.16 a7.5 7.5 0 1 0 15 0 a7.5 7.5 0 1 0 -15 0zM673.35 112.16 a7.5 7.5 0 1 0 15 0 a7.5 7.5 0 1 0 -15 0zM738.3 449.66 a7.5 7.5 0 1 0 15 0 a7.5 7.5 0 1 0 -15 0zM738.3 524.66 a7.5 7.5 0 1 0 15 0 a7.5 7.5 0 1 0 -15 0zM673.35 562.16 a7.5 7.5 0 1 0 15 0 a7.5 7.5 0 1 0 -15 0zM608.39 524.66 a7.5 7.5 0 1 0 15 0 a7.5 7.5 0 1 0 -15 0zM868.21 74.66 a7.5 7.5 0 1 0 15 0 a7.5 7.5 0 1 0 -15 0zM933.16 112.16 a7.5 7.5 0 1 0 15 0 a7.5 7.5 0 1 0 -15 0zM933.16 187.16 a7.5 7.5 0 1 0 15 0 a7.5 7.5 0 1 0 -15 0zM868.21 224.66 a7.5 7.5 0 1 0 15 0 a7.5 7.5 0 1 0 -15 0zM868.21 299.66 a7.5 7.5 0 1 0 15 0 a7.5 7.5 0 1 0 -15 0zM803.25 337.16 a7.5 7.5 0 1 0 15 0 a7.5 7.5 0 1 0 -15 0zM738.3 299.66 a7.5 7.5 0 1 0 15 0 a7.5 7.5 0 1 0 -15 0zM933.16 -37.84 a7.5 7.5 0 1 0 15 0 a7.5 7.5 0 1 0 -15 0zM998.12 -0.34 a7.5 7.5 0 1 0 15 0 a7.5 7.5 0 1 0 -15 0zM998.12 74.66 a7.5 7.5 0 1 0 15 0 a7.5 7.5 0 1 0 -15 0zM868.21 -0.34 a7.5 7.5 0 1 0 15 0 a7.5 7.5 0 1 0 -15 0zM1063.07 112.16 a7.5 7.5 0 1 0 15 0 a7.5 7.5 0 1 0 -15 0zM1063.07 187.16 a7.5 7.5 0 1 0 15 0 a7.5 7.5 0 1 0 -15 0zM998.12 224.66 a7.5 7.5 0 1 0 15 0 a7.5 7.5 0 1 0 -15 0zM998.12 524.66 a7.5 7.5 0 1 0 15 0 a7.5 7.5 0 1 0 -15 0zM1063.07 562.16 a7.5 7.5 0 1 0 15 0 a7.5 7.5 0 1 0 -15 0zM1063.07 637.16 a7.5 7.5 0 1 0 15 0 a7.5 7.5 0 1 0 -15 0zM998.12 674.66 a7.5 7.5 0 1 0 15 0 a7.5 7.5 0 1 0 -15 0zM933.16 637.16 a7.5 7.5 0 1 0 15 0 a7.5 7.5 0 1 0 -15 0zM933.16 562.16 a7.5 7.5 0 1 0 15 0 a7.5 7.5 0 1 0 -15 0zM1063.07 -37.84 a7.5 7.5 0 1 0 15 0 a7.5 7.5 0 1 0 -15 0zM1128.02 -0.34 a7.5 7.5 0 1 0 15 0 a7.5 7.5 0 1 0 -15 0zM1128.02 74.66 a7.5 7.5 0 1 0 15 0 a7.5 7.5 0 1 0 -15 0zM1128.02 224.66 a7.5 7.5 0 1 0 15 0 a7.5 7.5 0 1 0 -15 0zM1128.02 299.66 a7.5 7.5 0 1 0 15 0 a7.5 7.5 0 1 0 -15 0zM1063.07 337.16 a7.5 7.5 0 1 0 15 0 a7.5 7.5 0 1 0 -15 0zM998.12 299.66 a7.5 7.5 0 1 0 15 0 a7.5 7.5 0 1 0 -15 0zM1063.07 412.16 a7.5 7.5 0 1 0 15 0 a7.5 7.5 0 1 0 -15 0zM1128.02 449.66 a7.5 7.5 0 1 0 15 0 a7.5 7.5 0 1 0 -15 0zM1128.02 524.66 a7.5 7.5 0 1 0 15 0 a7.5 7.5 0 1 0 -15 0zM998.12 449.66 a7.5 7.5 0 1 0 15 0 a7.5 7.5 0 1 0 -15 0zM1257.93 299.66 a7.5 7.5 0 1 0 15 0 a7.5 7.5 0 1 0 -15 0zM1322.88 337.16 a7.5 7.5 0 1 0 15 0 a7.5 7.5 0 1 0 -15 0zM1322.88 412.16 a7.5 7.5 0 1 0 15 0 a7.5 7.5 0 1 0 -15 0zM1257.93 449.66 a7.5 7.5 0 1 0 15 0 a7.5 7.5 0 1 0 -15 0zM1192.98 412.16 a7.5 7.5 0 1 0 15 0 a7.5 7.5 0 1 0 -15 0zM1192.98 337.16 a7.5 7.5 0 1 0 15 0 a7.5 7.5 0 1 0 -15 0zM1257.93 524.66 a7.5 7.5 0 1 0 15 0 a7.5 7.5 0 1 0 -15 0zM1192.98 562.16 a7.5 7.5 0 1 0 15 0 a7.5 7.5 0 1 0 -15 0zM1322.88 562.16 a7.5 7.5 0 1 0 15 0 a7.5 7.5 0 1 0 -15 0zM1322.88 637.16 a7.5 7.5 0 1 0 15 0 a7.5 7.5 0 1 0 -15 0zM1257.93 674.66 a7.5 7.5 0 1 0 15 0 a7.5 7.5 0 1 0 -15 0zM1192.98 637.16 a7.5 7.5 0 1 0 15 0 a7.5 7.5 0 1 0 -15 0zM1322.88 -37.84 a7.5 7.5 0 1 0 15 0 a7.5 7.5 0 1 0 -15 0zM1387.84 -0.34 a7.5 7.5 0 1 0 15 0 a7.5 7.5 0 1 0 -15 0zM1387.84 74.66 a7.5 7.5 0 1 0 15 0 a7.5 7.5 0 1 0 -15 0zM1322.88 112.16 a7.5 7.5 0 1 0 15 0 a7.5 7.5 0 1 0 -15 0zM1257.93 74.66 a7.5 7.5 0 1 0 15 0 a7.5 7.5 0 1 0 -15 0zM1257.93 -0.34 a7.5 7.5 0 1 0 15 0 a7.5 7.5 0 1 0 -15 0zM1452.79 112.16 a7.5 7.5 0 1 0 15 0 a7.5 7.5 0 1 0 -15 0zM1452.79 187.16 a7.5 7.5 0 1 0 15 0 a7.5 7.5 0 1 0 -15 0zM1387.84 224.66 a7.5 7.5 0 1 0 15 0 a7.5 7.5 0 1 0 -15 0zM1322.88 187.16 a7.5 7.5 0 1 0 15 0 a7.5 7.5 0 1 0 -15 0zM1387.84 449.66 a7.5 7.5 0 1 0 15 0 a7.5 7.5 0 1 0 -15 0zM1387.84 524.66 a7.5 7.5 0 1 0 15 0 a7.5 7.5 0 1 0 -15 0zM1517.75 524.66 a7.5 7.5 0 1 0 15 0 a7.5 7.5 0 1 0 -15 0zM1582.7 562.16 a7.5 7.5 0 1 0 15 0 a7.5 7.5 0 1 0 -15 0zM1582.7 637.16 a7.5 7.5 0 1 0 15 0 a7.5 7.5 0 1 0 -15 0zM1517.75 674.66 a7.5 7.5 0 1 0 15 0 a7.5 7.5 0 1 0 -15 0zM1452.79 637.16 a7.5 7.5 0 1 0 15 0 a7.5 7.5 0 1 0 -15 0zM1452.79 562.16 a7.5 7.5 0 1 0 15 0 a7.5 7.5 0 1 0 -15 0z" fill="rgba(199, 201, 203, 1)"></path><path d="M154 51.07L205.1 80.57L205.1 139.57L154 169.07L102.9 139.57L102.9 80.57zM102.9 316.57L154 346.07L154 405.07L102.9 434.57L51.81 405.07L51.81 346.07zM154 405.07L205.1 434.57L205.1 493.57L154 523.07L102.9 493.57L102.9 434.57zM256.19 228.07L307.29 257.57L307.29 316.57L256.19 346.07L205.1 316.57L205.1 257.57zM205.1 493.57L256.19 523.07L256.19 582.07L205.1 611.57L154 582.07L154 523.07zM409.49 -37.43L460.58 -7.93L460.58 51.07L409.49 80.57L358.39 51.07L358.39 -7.93zM460.58 405.07L511.68 434.57L511.68 493.57L460.58 523.07L409.49 493.57L409.49 434.57zM511.68 -37.43L562.78 -7.93L562.78 51.07L511.68 80.57L460.58 51.07L460.58 -7.93zM562.78 51.07L613.87 80.57L613.87 139.57L562.78 169.07L511.68 139.57L511.68 80.57zM767.16 51.07L818.26 80.57L818.26 139.57L767.16 169.07L716.07 139.57L716.07 80.57zM716.07 493.57L767.16 523.07L767.16 582.07L716.07 611.57L664.97 582.07L664.97 523.07zM818.26 -37.43L869.36 -7.93L869.36 51.07L818.26 80.57L767.16 51.07L767.16 -7.93zM818.26 139.57L869.36 169.07L869.36 228.07L818.26 257.57L767.16 228.07L767.16 169.07zM920.46 139.57L971.55 169.07L971.55 228.07L920.46 257.57L869.36 228.07L869.36 169.07zM971.55 228.07L1022.65 257.57L1022.65 316.57L971.55 346.07L920.46 316.57L920.46 257.57zM1073.75 228.07L1124.84 257.57L1124.84 316.57L1073.75 346.07L1022.65 316.57L1022.65 257.57zM1073.75 405.07L1124.84 434.57L1124.84 493.57L1073.75 523.07L1022.65 493.57L1022.65 434.57zM1124.84 -37.43L1175.94 -7.93L1175.94 51.07L1124.84 80.57L1073.75 51.07L1073.75 -7.93zM1278.13 228.07L1329.23 257.57L1329.23 316.57L1278.13 346.07L1227.04 316.57L1227.04 257.57z" stroke="url(#SvgjsLinearGradient1394)" stroke-width="2"></path></g><defs><mask id="SvgjsMask1392"><rect width="1440" height="560" fill="#ffffff"></rect></mask><linearGradient x1="50%" y1="0%" x2="50%" y2="100%" gradientUnits="userSpaceOnUse" id="SvgjsLinearGradient1393"><stop stop-color="#0e2a47" offset="0"></stop><stop stop-color="rgba(48, 140, 217, 1)" offset="1"></stop></linearGradient><linearGradient x1="220.03199999999998" y1="-220.02399999999997" x2="1219.9679999999998" y2="780.024" gradientUnits="userSpaceOnUse" id="SvgjsLinearGradient1394"><stop stop-color="#0e2a47" offset="0"></stop><stop stop-color="rgba(255, 255, 255, 1)" offset="1"></stop></linearGradient></defs></svg>