<svg xmlns="http://www.w3.org/2000/svg" version="1.1" xmlns:xlink="http://www.w3.org/1999/xlink" xmlns:svgjs="http://svgjs.com/svgjs" width="1440" height="560" preserveAspectRatio="none" viewBox="0 0 1440 560"><g mask="url(&quot;#SvgjsMask1042&quot;)" fill="none"><rect width="1440" height="560" x="0" y="0" fill="url(#SvgjsLinearGradient1043)"></rect><path d="M996 174L995 516" stroke-width="6" stroke="url(#SvgjsLinearGradient1044)" stroke-linecap="round" class="Up"></path><path d="M1115 304L1114 498" stroke-width="6" stroke="url(#SvgjsLinearGradient1044)" stroke-linecap="round" class="Up"></path><path d="M1372 239L1371 584" stroke-width="6" stroke="url(#SvgjsLinearGradient1044)" stroke-linecap="round" class="Up"></path><path d="M73 496L72 176" stroke-width="8" stroke="url(#SvgjsLinearGradient1045)" stroke-linecap="round" class="Down"></path><path d="M1247 290L1246 -77" stroke-width="6" stroke="url(#SvgjsLinearGradient1044)" stroke-linecap="round" class="Up"></path><path d="M11 165L10 403" stroke-width="6" stroke="url(#SvgjsLinearGradient1045)" stroke-linecap="round" class="Down"></path><path d="M292 141L291 465" stroke-width="6" stroke="url(#SvgjsLinearGradient1045)" stroke-linecap="round" class="Down"></path><path d="M350 112L349 444" stroke-width="6" stroke="url(#SvgjsLinearGradient1044)" stroke-linecap="round" class="Up"></path><path d="M842 65L841 -258" stroke-width="8" stroke="url(#SvgjsLinearGradient1045)" stroke-linecap="round" class="Down"></path><path d="M507 128L506 -74" stroke-width="6" stroke="url(#SvgjsLinearGradient1045)" stroke-linecap="round" class="Down"></path><path d="M768 381L767 768" stroke-width="8" stroke="url(#SvgjsLinearGradient1045)" stroke-linecap="round" class="Down"></path><path d="M315 440L314 256" stroke-width="10" stroke="url(#SvgjsLinearGradient1044)" stroke-linecap="round" class="Up"></path><path d="M1363 227L1362 -192" stroke-width="10" stroke="url(#SvgjsLinearGradient1044)" stroke-linecap="round" class="Up"></path><path d="M639 206L638 438" stroke-width="8" stroke="url(#SvgjsLinearGradient1044)" stroke-linecap="round" class="Up"></path><path d="M499 24L498 -226" stroke-width="8" stroke="url(#SvgjsLinearGradient1044)" stroke-linecap="round" class="Up"></path><path d="M410 386L409 658" stroke-width="8" stroke="url(#SvgjsLinearGradient1045)" stroke-linecap="round" class="Down"></path><path d="M459 372L458 -20" stroke-width="6" stroke="url(#SvgjsLinearGradient1045)" stroke-linecap="round" class="Down"></path><path d="M809 268L808 59" stroke-width="8" stroke="url(#SvgjsLinearGradient1044)" stroke-linecap="round" class="Up"></path><path d="M1153 404L1152 241" stroke-width="8" stroke="url(#SvgjsLinearGradient1045)" stroke-linecap="round" class="Down"></path><path d="M44 263L43 70" stroke-width="6" stroke="url(#SvgjsLinearGradient1045)" stroke-linecap="round" class="Down"></path><path d="M52 312L51 645" stroke-width="10" stroke="url(#SvgjsLinearGradient1045)" stroke-linecap="round" class="Down"></path><path d="M778 322L777 -14" stroke-width="8" stroke="url(#SvgjsLinearGradient1045)" stroke-linecap="round" class="Down"></path><path d="M1271 485L1270 764" stroke-width="6" stroke="url(#SvgjsLinearGradient1045)" stroke-linecap="round" class="Down"></path><path d="M1301 179L1300 -11" stroke-width="8" stroke="url(#SvgjsLinearGradient1045)" stroke-linecap="round" class="Down"></path><path d="M602 483L601 832" stroke-width="6" stroke="url(#SvgjsLinearGradient1044)" stroke-linecap="round" class="Up"></path><path d="M1159 118L1158 414" stroke-width="10" stroke="url(#SvgjsLinearGradient1044)" stroke-linecap="round" class="Up"></path><path d="M1348 456L1347 47" stroke-width="10" stroke="url(#SvgjsLinearGradient1044)" stroke-linecap="round" class="Up"></path><path d="M960 240L959 515" stroke-width="10" stroke="url(#SvgjsLinearGradient1045)" stroke-linecap="round" class="Down"></path><path d="M1244 301L1243 -14" stroke-width="6" stroke="url(#SvgjsLinearGradient1045)" stroke-linecap="round" class="Down"></path><path d="M728 83L727 -212" stroke-width="10" stroke="url(#SvgjsLinearGradient1045)" stroke-linecap="round" class="Down"></path><path d="M907 208L906 -108" stroke-width="10" stroke="url(#SvgjsLinearGradient1045)" stroke-linecap="round" class="Down"></path><path d="M894 382L893 785" stroke-width="10" stroke="url(#SvgjsLinearGradient1044)" stroke-linecap="round" class="Up"></path><path d="M747 287L746 59" stroke-width="10" stroke="url(#SvgjsLinearGradient1045)" stroke-linecap="round" class="Down"></path><path d="M1066 99L1065 280" stroke-width="8" stroke="url(#SvgjsLinearGradient1044)" stroke-linecap="round" class="Up"></path><path d="M138 295L137 -29" stroke-width="8" stroke="url(#SvgjsLinearGradient1044)" stroke-linecap="round" class="Up"></path><path d="M858 217L857 26" stroke-width="10" stroke="url(#SvgjsLinearGradient1045)" stroke-linecap="round" class="Down"></path></g><defs><mask id="SvgjsMask1042"><rect width="1440" height="560" fill="#ffffff"></rect></mask><linearGradient x1="50%" y1="100%" x2="50%" y2="0%" gradientUnits="userSpaceOnUse" id="SvgjsLinearGradient1043"><stop stop-color="#0e2a47" offset="0"></stop><stop stop-color="rgba(48, 140, 217, 1)" offset="1"></stop></linearGradient><linearGradient x1="0%" y1="100%" x2="0%" y2="0%" id="SvgjsLinearGradient1044"><stop stop-color="rgba(192, 192, 192, 0)" offset="0"></stop><stop stop-color="rgba(192, 192, 192, 1)" offset="1"></stop></linearGradient><linearGradient x1="0%" y1="0%" x2="0%" y2="100%" id="SvgjsLinearGradient1045"><stop stop-color="rgba(192, 192, 192, 0)" offset="0"></stop><stop stop-color="rgba(192, 192, 192, 1)" offset="1"></stop></linearGradient></defs></svg>