<svg xmlns="http://www.w3.org/2000/svg" version="1.1" xmlns:xlink="http://www.w3.org/1999/xlink" xmlns:svgjs="http://svgjs.com/svgjs" width="1440" height="560" preserveAspectRatio="none" viewBox="0 0 1440 560"><g mask="url(&quot;#SvgjsMask1002&quot;)" fill="none"><rect width="1440" height="560" x="0" y="0" fill="url(#SvgjsLinearGradient1003)"></rect><path d="M 0,92 C 72,127.2 216,259.8 360,268 C 504,276.2 576,150.6 720,133 C 864,115.4 936,185 1080,180 C 1224,175 1368,122.4 1440,108L1440 560L0 560z" fill="rgba(62, 124, 176, 1)"></path><path d="M 0,476 C 96,437.4 288,280.2 480,283 C 672,285.8 768,477.2 960,490 C 1152,502.8 1344,375.6 1440,347L1440 560L0 560z" fill="rgba(48, 140, 217, 1)"></path></g><defs><mask id="SvgjsMask1002"><rect width="1440" height="560" fill="#ffffff"></rect></mask><linearGradient x1="15.28%" y1="139.29%" x2="84.72%" y2="-39.29%" gradientUnits="userSpaceOnUse" id="SvgjsLinearGradient1003"><stop stop-color="#0e2a47" offset="0"></stop><stop stop-color="rgba(35, 80, 140, 1)" offset="0.71"></stop></linearGradient></defs></svg>